<?xml version="1.0" standalone="no"?>
<!DOCTYPE svg PUBLIC "-//W3C//DTD SVG 20010904//EN"
 "http://www.w3.org/TR/2001/REC-SVG-20010904/DTD/svg10.dtd">
<svg version="1.0" xmlns="http://www.w3.org/2000/svg"
 width="512.000000pt" height="512.000000pt" viewBox="0 0 512.000000 512.000000"
 preserveAspectRatio="xMidYMid meet">
<metadata>
Created by potrace 1.14, written by Peter Selinger 2001-2017
</metadata>
<g transform="translate(0.000000,512.000000) scale(0.100000,-0.100000)"
fill="#000000" stroke="none">
<path d="M630 4837 c-19 -5 -43 -16 -53 -25 -21 -19 -36 -70 -28 -98 6 -22 60
-93 139 -184 7 -8 22 -26 33 -40 11 -14 30 -36 42 -50 12 -14 40 -48 62 -75
22 -28 44 -55 50 -61 5 -7 24 -29 40 -50 37 -46 85 -94 94 -92 3 0 8 -1 11 -2
19 -7 40 -7 40 1 0 4 7 6 15 3 8 -4 15 -1 15 5 0 6 7 11 15 11 16 0 35 36 42
78 3 21 -8 52 -29 76 -16 20 -46 57 -78 96 -17 21 -40 48 -50 60 -10 12 -33
39 -50 60 -17 21 -39 48 -48 59 -10 11 -30 37 -47 57 -16 21 -40 49 -52 61
-13 13 -23 26 -23 29 0 2 -12 18 -27 34 -39 44 -72 58 -113 47z"/>
<path d="M2466 4832 c-2 -2 -24 -5 -48 -7 -23 -1 -43 -4 -43 -5 0 -1 -16 -3
-35 -6 -19 -2 -46 -7 -60 -11 -14 -3 -32 -7 -40 -8 -8 -1 -22 -4 -30 -7 -8 -3
-46 -16 -85 -28 -100 -32 -287 -124 -350 -172 -5 -5 -35 -27 -65 -51 -30 -23
-56 -45 -58 -49 -2 -5 -11 -8 -20 -8 -8 0 -13 -3 -10 -6 3 -3 -15 -24 -40 -47
-26 -23 -50 -46 -54 -51 -7 -10 -2 -72 7 -86 3 -4 8 -25 11 -46 8 -49 9 -55
17 -74 4 -8 8 -29 10 -45 5 -45 13 -53 55 -52 20 1 43 -2 50 -7 6 -4 12 -3 12
3 0 6 6 8 13 5 7 -2 62 -5 122 -7 107 -2 110 -1 140 26 49 45 57 52 115 94
240 174 583 207 858 82 80 -36 192 -107 192 -122 0 -6 3 -8 6 -4 5 5 111 -97
152 -148 52 -63 125 -198 153 -280 7 -22 17 -44 21 -49 4 -6 8 -24 8 -41 0
-18 3 -35 7 -38 3 -4 8 -17 9 -29 1 -13 5 -41 9 -63 7 -49 12 -515 5 -516 -3
-1 -417 -2 -922 -4 l-916 -2 -5 24 c-2 13 -1 26 4 28 4 3 4 18 0 33 -5 15 -5
36 -1 47 4 11 5 25 3 32 -8 21 -8 203 0 203 4 0 3 8 -2 19 -6 10 -8 21 -4 24
3 4 6 25 7 47 1 40 1 40 -34 38 -19 -1 -39 -4 -45 -7 -5 -2 -22 -6 -39 -8 -46
-5 -75 -11 -86 -18 -5 -3 -10 -1 -10 6 0 10 -3 10 -12 1 -7 -7 -19 -12 -28
-12 -8 0 -66 50 -129 111 -110 107 -128 117 -132 74 0 -5 -2 -19 -5 -30 -9
-48 -13 -145 -15 -371 l-2 -241 -156 -1 c-86 0 -164 -2 -173 -4 -24 -5 -62
-38 -76 -64 -12 -22 -14 -964 -3 -964 3 0 7 -15 9 -33 3 -45 11 -112 12 -112
1 0 3 -7 5 -15 8 -39 15 -72 21 -97 3 -15 7 -30 9 -33 2 -4 7 -22 10 -41 3
-18 9 -36 13 -39 4 -3 9 -16 11 -30 1 -14 6 -27 10 -30 3 -3 8 -14 9 -25 2
-11 8 -25 13 -31 6 -7 12 -21 14 -32 9 -50 151 -306 198 -359 11 -13 17 -23
13 -23 -4 0 4 -11 18 -24 15 -13 26 -26 26 -30 0 -16 220 -241 287 -293 15
-13 42 -34 59 -48 18 -14 36 -25 42 -25 5 0 12 -7 16 -15 3 -8 10 -15 15 -15
5 0 36 -17 68 -39 57 -38 254 -137 283 -143 8 -2 18 -7 21 -11 3 -4 16 -9 27
-10 12 -1 22 -4 22 -7 0 -4 6 -7 13 -8 6 -1 37 -8 67 -17 75 -23 120 -35 150
-40 14 -3 36 -8 50 -11 14 -3 41 -8 60 -11 19 -2 51 -7 70 -9 101 -16 435 -8
531 12 13 2 39 7 58 10 18 3 74 17 125 30 50 14 97 26 104 26 6 1 12 5 12 10
0 4 3 7 8 7 4 -1 10 0 15 1 4 1 10 3 15 5 92 26 388 183 446 236 11 10 27 21
37 24 9 3 20 12 23 20 3 8 10 15 16 15 5 0 29 18 52 40 24 23 69 66 101 96 68
65 187 207 187 223 0 6 4 11 9 11 11 0 81 109 136 212 56 106 126 280 153 383
20 78 50 235 50 265 0 8 4 29 7 45 4 17 8 226 9 465 2 448 0 477 -38 515 -8 8
-19 15 -25 15 -6 0 -11 4 -11 8 0 12 -4 12 -180 16 -85 2 -157 4 -160 5 -3 0
-5 108 -5 238 1 248 -4 316 -30 446 -17 83 -65 235 -89 282 -8 16 -13 32 -10
37 3 4 1 8 -3 8 -5 0 -16 17 -26 38 -9 20 -28 55 -42 77 -14 22 -29 50 -35 63
-5 12 -14 22 -20 22 -5 0 -10 6 -10 13 0 6 -10 24 -23 39 -12 15 -33 42 -47
59 -38 50 -178 186 -227 221 -23 17 -43 35 -43 40 0 4 -4 8 -9 8 -5 0 -36 18
-69 39 -105 70 -350 179 -372 166 -5 -3 -10 -1 -12 4 -1 5 -17 11 -35 14 -17
3 -35 7 -40 10 -4 3 -30 8 -58 11 -27 4 -66 10 -85 13 -42 6 -278 11 -284 5z"/>
<path d="M155 4103 c-8 -8 -15 -12 -15 -8 0 4 -6 0 -13 -7 -65 -68 -22 -167
80 -183 26 -5 50 -9 53 -10 6 -1 68 -14 100 -20 13 -3 42 -7 64 -11 22 -3 43
-7 46 -9 3 -2 21 -6 40 -9 19 -3 46 -8 60 -11 31 -7 74 -14 125 -21 21 -3 44
-8 49 -12 19 -11 74 -13 81 -2 3 6 10 8 14 5 5 -2 17 6 28 18 68 74 31 164
-74 183 -31 6 -62 11 -103 18 -61 11 -83 15 -153 30 -38 9 -87 18 -110 21 -23
3 -53 8 -67 11 -14 3 -31 6 -37 6 -7 1 -13 4 -13 7 0 3 -15 7 -33 8 -17 0 -49
3 -70 6 -25 3 -42 0 -52 -10z"/>
</g>
</svg>
